<svg width="36" height="36" fill="none" xmlns="http://www.w3.org/2000/svg"><g clip-path="url(#clip0)" fill="#fff"><path d="M32.268 4.722h-2.26V2.935A.94.94 0 0029.07 2a.94.94 0 00-.938.935v1.787h-9.19V2.935A.94.94 0 0018.005 2a.94.94 0 00-.938.935v1.787H7.783V2.935A.94.94 0 006.846 2a.94.94 0 00-.938.935v1.787H3.742C1.679 4.722 0 6.452 0 8.51v21.748A3.737 3.737 0 003.742 34h28.516A3.735 3.735 0 0036 30.268V8.51c.01-2.058-1.67-3.788-3.732-3.788zm1.866 25.536a1.869 1.869 0 01-1.857 1.871H3.742a1.863 1.863 0 01-1.867-1.861V8.51c0-1.038.835-1.917 1.867-1.917h2.166v1.356a.94.94 0 00.938.936.94.94 0 00.937-.936V6.593h9.284v1.356a.94.94 0 00.938.936.94.94 0 00.937-.936V6.593h9.19v1.356a.94.94 0 00.938.936.94.94 0 00.938-.936V6.593h2.26c1.04 0 1.866.888 1.866 1.917v21.748z"/><path d="M15.539 12.673h-1.642a.94.94 0 00-.937.935.94.94 0 00.937.936h1.642a.94.94 0 00.937-.936.94.94 0 00-.937-.935zm6.526 0h-1.641a.94.94 0 00-.938.935.94.94 0 00.938.936h1.641a.94.94 0 00.938-.936.933.933 0 00-.938-.935zm6.583 0h-1.641a.94.94 0 00-.938.935.94.94 0 00.938.936h1.641a.94.94 0 00.938-.936.94.94 0 00-.938-.935zm-13.109 6.454h-1.642a.94.94 0 00-.937.936.94.94 0 00.937.935h1.642a.94.94 0 00.937-.935.94.94 0 00-.937-.936zm-6.574 0h-1.65a.94.94 0 00-.938.936.94.94 0 00.937.935h1.641a.94.94 0 00.938-.935.931.931 0 00-.928-.936zm13.1 0h-1.641a.94.94 0 00-.938.936.94.94 0 00.938.935h1.641a.94.94 0 00.938-.935.933.933 0 00-.938-.936zm6.583 0h-1.641a.94.94 0 00-.938.936.94.94 0 00.938.935h1.641a.94.94 0 00.938-.935.94.94 0 00-.938-.936zm-13.109 6.361h-1.642a.94.94 0 00-.937.935.94.94 0 00.937.936h1.642a.94.94 0 00.937-.936.94.94 0 00-.937-.935zm-6.574 0h-1.65a.94.94 0 00-.938.935.94.94 0 00.937.936h1.641a.94.94 0 00.938-.936.931.931 0 00-.928-.935zm13.1 0h-1.641a.94.94 0 00-.938.935.94.94 0 00.938.936h1.641a.94.94 0 00.938-.936.933.933 0 00-.938-.935z"/></g><defs><clipPath id="clip0"><path fill="#fff" d="M0 0h36v36H0z"/></clipPath></defs></svg>