<svg width="36" height="36" fill="none" xmlns="http://www.w3.org/2000/svg"><g clip-path="url(#clip0)"><path d="M29.36 0H9.095a4.56 4.56 0 00-4.551 4.53v26.94A4.56 4.56 0 009.096 36h20.276a2.088 2.088 0 001.491-.596c.38-.39.592-.913.592-1.457V2.096A2.1 2.1 0 0029.359 0zm-8.992 1.714h5.036v8.04l-1.788-2.85a.858.858 0 00-1.47 0l-1.778 2.837V1.714zM6.28 4.53a2.829 2.829 0 012.815-2.816h9.558v8.743A1.547 1.547 0 0019.72 12c.754.227 1.431-.261 1.834-.904l1.333-2.143 1.333 2.143c.398.634 1.075 1.123 1.851.904a1.547 1.547 0 001.067-1.534v-8.73h2.233a.364.364 0 01.36.36v24.856c-.119-.02-.24-.03-.36-.03H9.096a4.526 4.526 0 00-2.815.982V4.53zm23.451 26.091l-19.761.022a.857.857 0 000 1.714l19.761-.021v1.594a.364.364 0 01-.103.257.365.365 0 01-.257.103H9.096a2.818 2.818 0 110-5.636h20.276a.364.364 0 01.36.36v1.607z" fill="#fff"/></g><defs><clipPath id="clip0"><path fill="#fff" d="M0 0h36v36H0z"/></clipPath></defs></svg>