<svg width="36" height="36" fill="none" xmlns="http://www.w3.org/2000/svg"><g clip-path="url(#clip0)"><path d="M36 0h-7.303L7.71 20.901l-1.16-1.158H1.826v4.725l2.418 2.418-3.237 3.237a3.448 3.448 0 000 4.87A3.433 3.433 0 003.442 36c.882 0 1.764-.336 2.435-1.007l3.237-3.237 2.307 2.307h4.725v-4.725l-1.126-1.126L36 7.224V0zM2.498 33.502a1.337 1.337 0 010-1.889l.493-.493 1.888 1.889-.493.493c-.52.52-1.368.52-1.888 0zm3.872-1.984L4.482 29.63l1.252-1.253 1.889 1.888-1.253 1.253zm7.668.437h-1.744l-8.36-8.36v-1.744h1.744l8.36 8.36v1.744zM33.892 6.35L13.529 26.72l-1.435-1.435 8.07-8.07-1.492-1.49-8.069 8.07L9.2 22.391 29.567 2.11h4.325v4.24z" fill="#fff"/></g><defs><clipPath id="clip0"><path fill="#fff" d="M0 0h36v36H0z"/></clipPath></defs></svg>